<mxfile host="Electron" modified="2023-12-16T17:04:30.625Z" agent="Mozilla/5.0 (Windows NT 10.0; Win64; x64) AppleWebKit/537.36 (KHTML, like Gecko) draw.io/21.7.5 Chrome/114.0.5735.289 Electron/25.8.1 Safari/537.36" etag="wbuxOWWTuzef_cP_fzZ2" version="21.7.5" type="device">
  <diagram id="C5RBs43oDa-KdzZeNtuy" name="Page-1">
    <mxGraphModel dx="1448" dy="1930" grid="1" gridSize="10" guides="1" tooltips="1" connect="1" arrows="1" fold="1" page="1" pageScale="1" pageWidth="827" pageHeight="1169" math="0" shadow="0">
      <root>
        <mxCell id="WIyWlLk6GJQsqaUBKTNV-0" />
        <mxCell id="WIyWlLk6GJQsqaUBKTNV-1" parent="WIyWlLk6GJQsqaUBKTNV-0" />
        <mxCell id="CTtwoH4sy8VoPbu_Y0XK-1" style="rounded=0;orthogonalLoop=1;jettySize=auto;html=1;" parent="WIyWlLk6GJQsqaUBKTNV-1" source="CTtwoH4sy8VoPbu_Y0XK-0" target="CTtwoH4sy8VoPbu_Y0XK-2" edge="1">
          <mxGeometry relative="1" as="geometry">
            <mxPoint x="340" y="150" as="targetPoint" />
          </mxGeometry>
        </mxCell>
        <mxCell id="CTtwoH4sy8VoPbu_Y0XK-4" value="" style="rounded=0;orthogonalLoop=1;jettySize=auto;html=1;" parent="WIyWlLk6GJQsqaUBKTNV-1" source="CTtwoH4sy8VoPbu_Y0XK-0" target="CTtwoH4sy8VoPbu_Y0XK-3" edge="1">
          <mxGeometry relative="1" as="geometry" />
        </mxCell>
        <mxCell id="CTtwoH4sy8VoPbu_Y0XK-6" value="" style="rounded=0;orthogonalLoop=1;jettySize=auto;html=1;" parent="WIyWlLk6GJQsqaUBKTNV-1" source="CTtwoH4sy8VoPbu_Y0XK-0" target="CTtwoH4sy8VoPbu_Y0XK-5" edge="1">
          <mxGeometry relative="1" as="geometry" />
        </mxCell>
        <mxCell id="CTtwoH4sy8VoPbu_Y0XK-8" value="" style="rounded=0;orthogonalLoop=1;jettySize=auto;html=1;" parent="WIyWlLk6GJQsqaUBKTNV-1" source="CTtwoH4sy8VoPbu_Y0XK-0" target="CTtwoH4sy8VoPbu_Y0XK-7" edge="1">
          <mxGeometry relative="1" as="geometry" />
        </mxCell>
        <mxCell id="CTtwoH4sy8VoPbu_Y0XK-10" value="" style="rounded=0;orthogonalLoop=1;jettySize=auto;html=1;" parent="WIyWlLk6GJQsqaUBKTNV-1" source="CTtwoH4sy8VoPbu_Y0XK-0" target="CTtwoH4sy8VoPbu_Y0XK-9" edge="1">
          <mxGeometry relative="1" as="geometry" />
        </mxCell>
        <mxCell id="CTtwoH4sy8VoPbu_Y0XK-12" value="" style="rounded=0;orthogonalLoop=1;jettySize=auto;html=1;" parent="WIyWlLk6GJQsqaUBKTNV-1" source="CTtwoH4sy8VoPbu_Y0XK-0" target="CTtwoH4sy8VoPbu_Y0XK-11" edge="1">
          <mxGeometry relative="1" as="geometry" />
        </mxCell>
        <mxCell id="CTtwoH4sy8VoPbu_Y0XK-14" value="" style="rounded=0;orthogonalLoop=1;jettySize=auto;html=1;" parent="WIyWlLk6GJQsqaUBKTNV-1" source="CTtwoH4sy8VoPbu_Y0XK-0" target="CTtwoH4sy8VoPbu_Y0XK-13" edge="1">
          <mxGeometry relative="1" as="geometry" />
        </mxCell>
        <mxCell id="CTtwoH4sy8VoPbu_Y0XK-16" value="" style="rounded=0;orthogonalLoop=1;jettySize=auto;html=1;" parent="WIyWlLk6GJQsqaUBKTNV-1" source="CTtwoH4sy8VoPbu_Y0XK-0" target="CTtwoH4sy8VoPbu_Y0XK-15" edge="1">
          <mxGeometry relative="1" as="geometry" />
        </mxCell>
        <mxCell id="CTtwoH4sy8VoPbu_Y0XK-18" value="" style="rounded=0;orthogonalLoop=1;jettySize=auto;html=1;" parent="WIyWlLk6GJQsqaUBKTNV-1" source="CTtwoH4sy8VoPbu_Y0XK-0" target="CTtwoH4sy8VoPbu_Y0XK-17" edge="1">
          <mxGeometry relative="1" as="geometry" />
        </mxCell>
        <mxCell id="CTtwoH4sy8VoPbu_Y0XK-20" value="" style="rounded=0;orthogonalLoop=1;jettySize=auto;html=1;" parent="WIyWlLk6GJQsqaUBKTNV-1" source="CTtwoH4sy8VoPbu_Y0XK-0" target="CTtwoH4sy8VoPbu_Y0XK-19" edge="1">
          <mxGeometry relative="1" as="geometry" />
        </mxCell>
        <mxCell id="CTtwoH4sy8VoPbu_Y0XK-0" value="GIAOVIEN" style="rounded=0;whiteSpace=wrap;html=1;" parent="WIyWlLk6GJQsqaUBKTNV-1" vertex="1">
          <mxGeometry x="294" y="250" width="120" height="60" as="geometry" />
        </mxCell>
        <mxCell id="CTtwoH4sy8VoPbu_Y0XK-2" value="&lt;u&gt;&lt;b&gt;MA&lt;/b&gt;&lt;/u&gt;" style="ellipse;whiteSpace=wrap;html=1;" parent="WIyWlLk6GJQsqaUBKTNV-1" vertex="1">
          <mxGeometry x="330" y="10" width="90" height="80" as="geometry" />
        </mxCell>
        <mxCell id="CTtwoH4sy8VoPbu_Y0XK-3" value="HO" style="ellipse;whiteSpace=wrap;html=1;rounded=0;" parent="WIyWlLk6GJQsqaUBKTNV-1" vertex="1">
          <mxGeometry x="280" y="80" width="80" height="80" as="geometry" />
        </mxCell>
        <mxCell id="CTtwoH4sy8VoPbu_Y0XK-5" value="TENLOT" style="ellipse;whiteSpace=wrap;html=1;rounded=0;" parent="WIyWlLk6GJQsqaUBKTNV-1" vertex="1">
          <mxGeometry x="190" y="20" width="80" height="80" as="geometry" />
        </mxCell>
        <mxCell id="CTtwoH4sy8VoPbu_Y0XK-7" value="TEN" style="ellipse;whiteSpace=wrap;html=1;rounded=0;" parent="WIyWlLk6GJQsqaUBKTNV-1" vertex="1">
          <mxGeometry x="180" y="110" width="80" height="80" as="geometry" />
        </mxCell>
        <mxCell id="CTtwoH4sy8VoPbu_Y0XK-9" value="PHAI" style="ellipse;whiteSpace=wrap;html=1;rounded=0;" parent="WIyWlLk6GJQsqaUBKTNV-1" vertex="1">
          <mxGeometry x="80" y="110" width="80" height="80" as="geometry" />
        </mxCell>
        <mxCell id="CTtwoH4sy8VoPbu_Y0XK-11" value="NGSINH" style="ellipse;whiteSpace=wrap;html=1;rounded=0;" parent="WIyWlLk6GJQsqaUBKTNV-1" vertex="1">
          <mxGeometry x="130" y="200" width="80" height="80" as="geometry" />
        </mxCell>
        <mxCell id="CTtwoH4sy8VoPbu_Y0XK-13" value="LUONG" style="ellipse;whiteSpace=wrap;html=1;rounded=0;" parent="WIyWlLk6GJQsqaUBKTNV-1" vertex="1">
          <mxGeometry x="50" y="250" width="80" height="80" as="geometry" />
        </mxCell>
        <mxCell id="CTtwoH4sy8VoPbu_Y0XK-15" value="BO_MON" style="ellipse;whiteSpace=wrap;html=1;rounded=0;" parent="WIyWlLk6GJQsqaUBKTNV-1" vertex="1">
          <mxGeometry x="130" y="300" width="80" height="80" as="geometry" />
        </mxCell>
        <mxCell id="CTtwoH4sy8VoPbu_Y0XK-17" value="KHOA" style="ellipse;whiteSpace=wrap;html=1;rounded=0;" parent="WIyWlLk6GJQsqaUBKTNV-1" vertex="1">
          <mxGeometry x="90" y="380" width="80" height="80" as="geometry" />
        </mxCell>
        <mxCell id="CTtwoH4sy8VoPbu_Y0XK-19" value="PHU_CAP" style="ellipse;whiteSpace=wrap;html=1;rounded=0;" parent="WIyWlLk6GJQsqaUBKTNV-1" vertex="1">
          <mxGeometry x="190" y="370" width="80" height="80" as="geometry" />
        </mxCell>
        <mxCell id="CTtwoH4sy8VoPbu_Y0XK-23" value="" style="rounded=0;orthogonalLoop=1;jettySize=auto;html=1;" parent="WIyWlLk6GJQsqaUBKTNV-1" source="CTtwoH4sy8VoPbu_Y0XK-21" target="CTtwoH4sy8VoPbu_Y0XK-22" edge="1">
          <mxGeometry relative="1" as="geometry" />
        </mxCell>
        <mxCell id="CTtwoH4sy8VoPbu_Y0XK-25" value="" style="rounded=0;orthogonalLoop=1;jettySize=auto;html=1;" parent="WIyWlLk6GJQsqaUBKTNV-1" source="CTtwoH4sy8VoPbu_Y0XK-21" target="CTtwoH4sy8VoPbu_Y0XK-24" edge="1">
          <mxGeometry relative="1" as="geometry" />
        </mxCell>
        <mxCell id="CTtwoH4sy8VoPbu_Y0XK-27" value="" style="rounded=0;orthogonalLoop=1;jettySize=auto;html=1;" parent="WIyWlLk6GJQsqaUBKTNV-1" source="CTtwoH4sy8VoPbu_Y0XK-21" target="CTtwoH4sy8VoPbu_Y0XK-26" edge="1">
          <mxGeometry relative="1" as="geometry" />
        </mxCell>
        <mxCell id="CTtwoH4sy8VoPbu_Y0XK-29" value="" style="rounded=0;orthogonalLoop=1;jettySize=auto;html=1;" parent="WIyWlLk6GJQsqaUBKTNV-1" source="CTtwoH4sy8VoPbu_Y0XK-21" target="CTtwoH4sy8VoPbu_Y0XK-28" edge="1">
          <mxGeometry relative="1" as="geometry" />
        </mxCell>
        <mxCell id="CTtwoH4sy8VoPbu_Y0XK-31" value="" style="rounded=0;orthogonalLoop=1;jettySize=auto;html=1;" parent="WIyWlLk6GJQsqaUBKTNV-1" source="CTtwoH4sy8VoPbu_Y0XK-21" target="CTtwoH4sy8VoPbu_Y0XK-30" edge="1">
          <mxGeometry relative="1" as="geometry" />
        </mxCell>
        <mxCell id="CTtwoH4sy8VoPbu_Y0XK-33" value="" style="rounded=0;orthogonalLoop=1;jettySize=auto;html=1;" parent="WIyWlLk6GJQsqaUBKTNV-1" source="CTtwoH4sy8VoPbu_Y0XK-21" target="CTtwoH4sy8VoPbu_Y0XK-32" edge="1">
          <mxGeometry relative="1" as="geometry" />
        </mxCell>
        <mxCell id="CTtwoH4sy8VoPbu_Y0XK-35" value="" style="rounded=0;orthogonalLoop=1;jettySize=auto;html=1;" parent="WIyWlLk6GJQsqaUBKTNV-1" source="CTtwoH4sy8VoPbu_Y0XK-21" target="CTtwoH4sy8VoPbu_Y0XK-34" edge="1">
          <mxGeometry relative="1" as="geometry" />
        </mxCell>
        <mxCell id="CTtwoH4sy8VoPbu_Y0XK-21" value="KHOA" style="rounded=0;whiteSpace=wrap;html=1;" parent="WIyWlLk6GJQsqaUBKTNV-1" vertex="1">
          <mxGeometry x="1140" y="290" width="120" height="60" as="geometry" />
        </mxCell>
        <mxCell id="CTtwoH4sy8VoPbu_Y0XK-22" value="&lt;u&gt;&lt;b&gt;MA&lt;/b&gt;&lt;/u&gt;" style="ellipse;whiteSpace=wrap;html=1;rounded=0;" parent="WIyWlLk6GJQsqaUBKTNV-1" vertex="1">
          <mxGeometry x="1170" y="30" width="80" height="80" as="geometry" />
        </mxCell>
        <mxCell id="CTtwoH4sy8VoPbu_Y0XK-24" value="TEN" style="ellipse;whiteSpace=wrap;html=1;rounded=0;" parent="WIyWlLk6GJQsqaUBKTNV-1" vertex="1">
          <mxGeometry x="1120" y="110" width="80" height="80" as="geometry" />
        </mxCell>
        <mxCell id="CTtwoH4sy8VoPbu_Y0XK-26" value="NAM_THANH_LAP" style="ellipse;whiteSpace=wrap;html=1;rounded=0;" parent="WIyWlLk6GJQsqaUBKTNV-1" vertex="1">
          <mxGeometry x="1040" y="60" width="80" height="80" as="geometry" />
        </mxCell>
        <mxCell id="CTtwoH4sy8VoPbu_Y0XK-28" value="PHONG_LAM_VIEC" style="ellipse;whiteSpace=wrap;html=1;rounded=0;" parent="WIyWlLk6GJQsqaUBKTNV-1" vertex="1">
          <mxGeometry x="1030" y="150" width="80" height="80" as="geometry" />
        </mxCell>
        <mxCell id="CTtwoH4sy8VoPbu_Y0XK-30" value="SO_DIEN_THOAI" style="ellipse;whiteSpace=wrap;html=1;rounded=0;" parent="WIyWlLk6GJQsqaUBKTNV-1" vertex="1">
          <mxGeometry x="940" y="160" width="80" height="80" as="geometry" />
        </mxCell>
        <mxCell id="CTtwoH4sy8VoPbu_Y0XK-32" value="TRUONG_KHOA" style="ellipse;whiteSpace=wrap;html=1;rounded=0;" parent="WIyWlLk6GJQsqaUBKTNV-1" vertex="1">
          <mxGeometry x="990" y="240" width="80" height="80" as="geometry" />
        </mxCell>
        <mxCell id="CTtwoH4sy8VoPbu_Y0XK-34" value="NGAY_NHAN_CHUC" style="ellipse;whiteSpace=wrap;html=1;rounded=0;" parent="WIyWlLk6GJQsqaUBKTNV-1" vertex="1">
          <mxGeometry x="920" y="290" width="80" height="80" as="geometry" />
        </mxCell>
        <mxCell id="CTtwoH4sy8VoPbu_Y0XK-37" value="" style="rounded=0;orthogonalLoop=1;jettySize=auto;html=1;" parent="WIyWlLk6GJQsqaUBKTNV-1" source="CTtwoH4sy8VoPbu_Y0XK-44" target="CTtwoH4sy8VoPbu_Y0XK-45" edge="1">
          <mxGeometry relative="1" as="geometry" />
        </mxCell>
        <mxCell id="CTtwoH4sy8VoPbu_Y0XK-38" value="" style="rounded=0;orthogonalLoop=1;jettySize=auto;html=1;" parent="WIyWlLk6GJQsqaUBKTNV-1" source="CTtwoH4sy8VoPbu_Y0XK-44" target="CTtwoH4sy8VoPbu_Y0XK-46" edge="1">
          <mxGeometry relative="1" as="geometry" />
        </mxCell>
        <mxCell id="CTtwoH4sy8VoPbu_Y0XK-39" value="" style="rounded=0;orthogonalLoop=1;jettySize=auto;html=1;" parent="WIyWlLk6GJQsqaUBKTNV-1" source="CTtwoH4sy8VoPbu_Y0XK-44" target="CTtwoH4sy8VoPbu_Y0XK-47" edge="1">
          <mxGeometry relative="1" as="geometry" />
        </mxCell>
        <mxCell id="CTtwoH4sy8VoPbu_Y0XK-40" value="" style="rounded=0;orthogonalLoop=1;jettySize=auto;html=1;" parent="WIyWlLk6GJQsqaUBKTNV-1" source="CTtwoH4sy8VoPbu_Y0XK-44" target="CTtwoH4sy8VoPbu_Y0XK-48" edge="1">
          <mxGeometry relative="1" as="geometry" />
        </mxCell>
        <mxCell id="CTtwoH4sy8VoPbu_Y0XK-41" value="" style="rounded=0;orthogonalLoop=1;jettySize=auto;html=1;" parent="WIyWlLk6GJQsqaUBKTNV-1" source="CTtwoH4sy8VoPbu_Y0XK-44" target="CTtwoH4sy8VoPbu_Y0XK-49" edge="1">
          <mxGeometry relative="1" as="geometry" />
        </mxCell>
        <mxCell id="CTtwoH4sy8VoPbu_Y0XK-42" value="" style="rounded=0;orthogonalLoop=1;jettySize=auto;html=1;" parent="WIyWlLk6GJQsqaUBKTNV-1" source="CTtwoH4sy8VoPbu_Y0XK-44" target="CTtwoH4sy8VoPbu_Y0XK-50" edge="1">
          <mxGeometry relative="1" as="geometry" />
        </mxCell>
        <mxCell id="CTtwoH4sy8VoPbu_Y0XK-43" value="" style="rounded=0;orthogonalLoop=1;jettySize=auto;html=1;" parent="WIyWlLk6GJQsqaUBKTNV-1" source="CTtwoH4sy8VoPbu_Y0XK-44" target="CTtwoH4sy8VoPbu_Y0XK-51" edge="1">
          <mxGeometry relative="1" as="geometry" />
        </mxCell>
        <mxCell id="CTtwoH4sy8VoPbu_Y0XK-44" value="BO_MON" style="rounded=0;whiteSpace=wrap;html=1;" parent="WIyWlLk6GJQsqaUBKTNV-1" vertex="1">
          <mxGeometry x="1140" y="790" width="120" height="60" as="geometry" />
        </mxCell>
        <mxCell id="CTtwoH4sy8VoPbu_Y0XK-45" value="&lt;u&gt;&lt;b&gt;MA&lt;/b&gt;&lt;/u&gt;" style="ellipse;whiteSpace=wrap;html=1;rounded=0;" parent="WIyWlLk6GJQsqaUBKTNV-1" vertex="1">
          <mxGeometry x="1170" y="530" width="80" height="80" as="geometry" />
        </mxCell>
        <mxCell id="CTtwoH4sy8VoPbu_Y0XK-46" value="TEN" style="ellipse;whiteSpace=wrap;html=1;rounded=0;" parent="WIyWlLk6GJQsqaUBKTNV-1" vertex="1">
          <mxGeometry x="1120" y="610" width="80" height="80" as="geometry" />
        </mxCell>
        <mxCell id="CTtwoH4sy8VoPbu_Y0XK-47" value="PHONG" style="ellipse;whiteSpace=wrap;html=1;rounded=0;" parent="WIyWlLk6GJQsqaUBKTNV-1" vertex="1">
          <mxGeometry x="1040" y="560" width="80" height="80" as="geometry" />
        </mxCell>
        <mxCell id="CTtwoH4sy8VoPbu_Y0XK-48" value="MA_KHOA" style="ellipse;whiteSpace=wrap;html=1;rounded=0;" parent="WIyWlLk6GJQsqaUBKTNV-1" vertex="1">
          <mxGeometry x="940" y="650" width="80" height="80" as="geometry" />
        </mxCell>
        <mxCell id="CTtwoH4sy8VoPbu_Y0XK-49" value="SO_DIEN_THOAI" style="ellipse;whiteSpace=wrap;html=1;rounded=0;" parent="WIyWlLk6GJQsqaUBKTNV-1" vertex="1">
          <mxGeometry x="1030" y="650" width="80" height="80" as="geometry" />
        </mxCell>
        <mxCell id="CTtwoH4sy8VoPbu_Y0XK-50" value="TRUONG_BO_MON" style="ellipse;whiteSpace=wrap;html=1;rounded=0;" parent="WIyWlLk6GJQsqaUBKTNV-1" vertex="1">
          <mxGeometry x="990" y="730" width="80" height="80" as="geometry" />
        </mxCell>
        <mxCell id="CTtwoH4sy8VoPbu_Y0XK-51" value="NGAY_NHAN_CHUC" style="ellipse;whiteSpace=wrap;html=1;rounded=0;" parent="WIyWlLk6GJQsqaUBKTNV-1" vertex="1">
          <mxGeometry x="900" y="780" width="80" height="80" as="geometry" />
        </mxCell>
        <mxCell id="b8Esm8HIKwyEbSy9mFFW-3" value="" style="rounded=0;orthogonalLoop=1;jettySize=auto;html=1;" edge="1" parent="WIyWlLk6GJQsqaUBKTNV-1" source="b8Esm8HIKwyEbSy9mFFW-0" target="b8Esm8HIKwyEbSy9mFFW-2">
          <mxGeometry relative="1" as="geometry" />
        </mxCell>
        <mxCell id="b8Esm8HIKwyEbSy9mFFW-5" value="" style="rounded=0;orthogonalLoop=1;jettySize=auto;html=1;" edge="1" parent="WIyWlLk6GJQsqaUBKTNV-1" source="b8Esm8HIKwyEbSy9mFFW-0" target="b8Esm8HIKwyEbSy9mFFW-4">
          <mxGeometry relative="1" as="geometry" />
        </mxCell>
        <mxCell id="b8Esm8HIKwyEbSy9mFFW-0" value="PHONG" style="rounded=0;whiteSpace=wrap;html=1;" vertex="1" parent="WIyWlLk6GJQsqaUBKTNV-1">
          <mxGeometry x="800" y="60" width="120" height="60" as="geometry" />
        </mxCell>
        <mxCell id="b8Esm8HIKwyEbSy9mFFW-2" value="&lt;u&gt;&lt;b&gt;MA&lt;/b&gt;&lt;/u&gt;" style="ellipse;whiteSpace=wrap;html=1;rounded=0;" vertex="1" parent="WIyWlLk6GJQsqaUBKTNV-1">
          <mxGeometry x="780" y="-130" width="80" height="80" as="geometry" />
        </mxCell>
        <mxCell id="b8Esm8HIKwyEbSy9mFFW-4" value="TEN" style="ellipse;whiteSpace=wrap;html=1;rounded=0;" vertex="1" parent="WIyWlLk6GJQsqaUBKTNV-1">
          <mxGeometry x="710" y="-50" width="80" height="80" as="geometry" />
        </mxCell>
        <mxCell id="b8Esm8HIKwyEbSy9mFFW-8" value="" style="rounded=0;orthogonalLoop=1;jettySize=auto;html=1;" edge="1" parent="WIyWlLk6GJQsqaUBKTNV-1" source="b8Esm8HIKwyEbSy9mFFW-6" target="b8Esm8HIKwyEbSy9mFFW-7">
          <mxGeometry relative="1" as="geometry" />
        </mxCell>
        <mxCell id="b8Esm8HIKwyEbSy9mFFW-10" value="" style="rounded=0;orthogonalLoop=1;jettySize=auto;html=1;" edge="1" parent="WIyWlLk6GJQsqaUBKTNV-1" source="b8Esm8HIKwyEbSy9mFFW-6" target="b8Esm8HIKwyEbSy9mFFW-9">
          <mxGeometry relative="1" as="geometry" />
        </mxCell>
        <mxCell id="b8Esm8HIKwyEbSy9mFFW-6" value="SO_DIEN_THOAI" style="rounded=0;whiteSpace=wrap;html=1;" vertex="1" parent="WIyWlLk6GJQsqaUBKTNV-1">
          <mxGeometry x="470" y="860" width="120" height="60" as="geometry" />
        </mxCell>
        <mxCell id="b8Esm8HIKwyEbSy9mFFW-7" value="MAGV" style="ellipse;whiteSpace=wrap;html=1;rounded=0;" vertex="1" parent="WIyWlLk6GJQsqaUBKTNV-1">
          <mxGeometry x="340" y="780" width="80" height="80" as="geometry" />
        </mxCell>
        <mxCell id="b8Esm8HIKwyEbSy9mFFW-9" value="&lt;b&gt;&lt;u&gt;SO_DIEN_THOAI&lt;/u&gt;&lt;/b&gt;" style="ellipse;whiteSpace=wrap;html=1;rounded=0;" vertex="1" parent="WIyWlLk6GJQsqaUBKTNV-1">
          <mxGeometry x="290" y="850" width="80" height="80" as="geometry" />
        </mxCell>
        <mxCell id="b8Esm8HIKwyEbSy9mFFW-13" value="" style="rounded=0;orthogonalLoop=1;jettySize=auto;html=1;" edge="1" parent="WIyWlLk6GJQsqaUBKTNV-1" source="b8Esm8HIKwyEbSy9mFFW-11" target="b8Esm8HIKwyEbSy9mFFW-12">
          <mxGeometry relative="1" as="geometry" />
        </mxCell>
        <mxCell id="b8Esm8HIKwyEbSy9mFFW-15" value="" style="rounded=0;orthogonalLoop=1;jettySize=auto;html=1;" edge="1" parent="WIyWlLk6GJQsqaUBKTNV-1" source="b8Esm8HIKwyEbSy9mFFW-11" target="b8Esm8HIKwyEbSy9mFFW-14">
          <mxGeometry relative="1" as="geometry" />
        </mxCell>
        <mxCell id="b8Esm8HIKwyEbSy9mFFW-17" value="" style="rounded=0;orthogonalLoop=1;jettySize=auto;html=1;" edge="1" parent="WIyWlLk6GJQsqaUBKTNV-1" source="b8Esm8HIKwyEbSy9mFFW-11" target="b8Esm8HIKwyEbSy9mFFW-16">
          <mxGeometry relative="1" as="geometry" />
        </mxCell>
        <mxCell id="b8Esm8HIKwyEbSy9mFFW-19" value="" style="rounded=0;orthogonalLoop=1;jettySize=auto;html=1;" edge="1" parent="WIyWlLk6GJQsqaUBKTNV-1" source="b8Esm8HIKwyEbSy9mFFW-11" target="b8Esm8HIKwyEbSy9mFFW-18">
          <mxGeometry relative="1" as="geometry" />
        </mxCell>
        <mxCell id="b8Esm8HIKwyEbSy9mFFW-21" value="" style="rounded=0;orthogonalLoop=1;jettySize=auto;html=1;" edge="1" parent="WIyWlLk6GJQsqaUBKTNV-1" source="b8Esm8HIKwyEbSy9mFFW-11" target="b8Esm8HIKwyEbSy9mFFW-20">
          <mxGeometry relative="1" as="geometry" />
        </mxCell>
        <mxCell id="b8Esm8HIKwyEbSy9mFFW-11" value="DIA_CHI" style="rounded=0;whiteSpace=wrap;html=1;" vertex="1" parent="WIyWlLk6GJQsqaUBKTNV-1">
          <mxGeometry x="170" y="720" width="120" height="60" as="geometry" />
        </mxCell>
        <mxCell id="b8Esm8HIKwyEbSy9mFFW-12" value="MAGV" style="ellipse;whiteSpace=wrap;html=1;rounded=0;" vertex="1" parent="WIyWlLk6GJQsqaUBKTNV-1">
          <mxGeometry x="140" y="540" width="80" height="80" as="geometry" />
        </mxCell>
        <mxCell id="b8Esm8HIKwyEbSy9mFFW-14" value="SONHA" style="ellipse;whiteSpace=wrap;html=1;rounded=0;" vertex="1" parent="WIyWlLk6GJQsqaUBKTNV-1">
          <mxGeometry x="110" y="620" width="80" height="80" as="geometry" />
        </mxCell>
        <mxCell id="b8Esm8HIKwyEbSy9mFFW-16" value="DUONG" style="ellipse;whiteSpace=wrap;html=1;rounded=0;" vertex="1" parent="WIyWlLk6GJQsqaUBKTNV-1">
          <mxGeometry x="24" y="640" width="80" height="80" as="geometry" />
        </mxCell>
        <mxCell id="b8Esm8HIKwyEbSy9mFFW-18" value="QUAN" style="ellipse;whiteSpace=wrap;html=1;rounded=0;" vertex="1" parent="WIyWlLk6GJQsqaUBKTNV-1">
          <mxGeometry x="70" y="720" width="80" height="80" as="geometry" />
        </mxCell>
        <mxCell id="b8Esm8HIKwyEbSy9mFFW-20" value="THANHPHO" style="ellipse;whiteSpace=wrap;html=1;rounded=0;" vertex="1" parent="WIyWlLk6GJQsqaUBKTNV-1">
          <mxGeometry x="30" y="800" width="80" height="80" as="geometry" />
        </mxCell>
        <mxCell id="b8Esm8HIKwyEbSy9mFFW-24" value="" style="rounded=0;orthogonalLoop=1;jettySize=auto;html=1;" edge="1" parent="WIyWlLk6GJQsqaUBKTNV-1" source="b8Esm8HIKwyEbSy9mFFW-22" target="b8Esm8HIKwyEbSy9mFFW-23">
          <mxGeometry relative="1" as="geometry" />
        </mxCell>
        <mxCell id="b8Esm8HIKwyEbSy9mFFW-26" value="" style="rounded=0;orthogonalLoop=1;jettySize=auto;html=1;" edge="1" parent="WIyWlLk6GJQsqaUBKTNV-1" source="b8Esm8HIKwyEbSy9mFFW-22" target="b8Esm8HIKwyEbSy9mFFW-25">
          <mxGeometry relative="1" as="geometry" />
        </mxCell>
        <mxCell id="b8Esm8HIKwyEbSy9mFFW-22" value="CHU_DE" style="rounded=0;whiteSpace=wrap;html=1;" vertex="1" parent="WIyWlLk6GJQsqaUBKTNV-1">
          <mxGeometry x="550" y="60" width="120" height="60" as="geometry" />
        </mxCell>
        <mxCell id="b8Esm8HIKwyEbSy9mFFW-23" value="&lt;b&gt;&lt;u&gt;MA&lt;/u&gt;&lt;/b&gt;" style="ellipse;whiteSpace=wrap;html=1;rounded=0;" vertex="1" parent="WIyWlLk6GJQsqaUBKTNV-1">
          <mxGeometry x="570" y="-90" width="80" height="80" as="geometry" />
        </mxCell>
        <mxCell id="b8Esm8HIKwyEbSy9mFFW-25" value="TEN" style="ellipse;whiteSpace=wrap;html=1;rounded=0;" vertex="1" parent="WIyWlLk6GJQsqaUBKTNV-1">
          <mxGeometry x="490" y="-50" width="80" height="80" as="geometry" />
        </mxCell>
        <mxCell id="b8Esm8HIKwyEbSy9mFFW-29" value="" style="rounded=0;orthogonalLoop=1;jettySize=auto;html=1;" edge="1" parent="WIyWlLk6GJQsqaUBKTNV-1" source="b8Esm8HIKwyEbSy9mFFW-27" target="b8Esm8HIKwyEbSy9mFFW-28">
          <mxGeometry relative="1" as="geometry" />
        </mxCell>
        <mxCell id="b8Esm8HIKwyEbSy9mFFW-32" value="" style="rounded=0;orthogonalLoop=1;jettySize=auto;html=1;" edge="1" parent="WIyWlLk6GJQsqaUBKTNV-1" source="b8Esm8HIKwyEbSy9mFFW-27" target="b8Esm8HIKwyEbSy9mFFW-31">
          <mxGeometry relative="1" as="geometry" />
        </mxCell>
        <mxCell id="b8Esm8HIKwyEbSy9mFFW-34" value="" style="rounded=0;orthogonalLoop=1;jettySize=auto;html=1;" edge="1" parent="WIyWlLk6GJQsqaUBKTNV-1" source="b8Esm8HIKwyEbSy9mFFW-27" target="b8Esm8HIKwyEbSy9mFFW-33">
          <mxGeometry relative="1" as="geometry" />
        </mxCell>
        <mxCell id="b8Esm8HIKwyEbSy9mFFW-36" value="" style="rounded=0;orthogonalLoop=1;jettySize=auto;html=1;" edge="1" parent="WIyWlLk6GJQsqaUBKTNV-1" source="b8Esm8HIKwyEbSy9mFFW-27" target="b8Esm8HIKwyEbSy9mFFW-35">
          <mxGeometry relative="1" as="geometry" />
        </mxCell>
        <mxCell id="b8Esm8HIKwyEbSy9mFFW-38" value="" style="rounded=0;orthogonalLoop=1;jettySize=auto;html=1;" edge="1" parent="WIyWlLk6GJQsqaUBKTNV-1" source="b8Esm8HIKwyEbSy9mFFW-27" target="b8Esm8HIKwyEbSy9mFFW-37">
          <mxGeometry relative="1" as="geometry" />
        </mxCell>
        <mxCell id="b8Esm8HIKwyEbSy9mFFW-40" value="" style="rounded=0;orthogonalLoop=1;jettySize=auto;html=1;" edge="1" parent="WIyWlLk6GJQsqaUBKTNV-1" source="b8Esm8HIKwyEbSy9mFFW-27" target="b8Esm8HIKwyEbSy9mFFW-39">
          <mxGeometry relative="1" as="geometry" />
        </mxCell>
        <mxCell id="b8Esm8HIKwyEbSy9mFFW-42" value="" style="rounded=0;orthogonalLoop=1;jettySize=auto;html=1;" edge="1" parent="WIyWlLk6GJQsqaUBKTNV-1" source="b8Esm8HIKwyEbSy9mFFW-27" target="b8Esm8HIKwyEbSy9mFFW-41">
          <mxGeometry relative="1" as="geometry" />
        </mxCell>
        <mxCell id="b8Esm8HIKwyEbSy9mFFW-45" value="" style="rounded=0;orthogonalLoop=1;jettySize=auto;html=1;" edge="1" parent="WIyWlLk6GJQsqaUBKTNV-1" source="b8Esm8HIKwyEbSy9mFFW-27" target="b8Esm8HIKwyEbSy9mFFW-44">
          <mxGeometry relative="1" as="geometry" />
        </mxCell>
        <mxCell id="b8Esm8HIKwyEbSy9mFFW-27" value="DE_TAI" style="rounded=0;whiteSpace=wrap;html=1;" vertex="1" parent="WIyWlLk6GJQsqaUBKTNV-1">
          <mxGeometry x="800" y="-310" width="120" height="60" as="geometry" />
        </mxCell>
        <mxCell id="b8Esm8HIKwyEbSy9mFFW-28" value="STT" style="ellipse;whiteSpace=wrap;html=1;rounded=0;" vertex="1" parent="WIyWlLk6GJQsqaUBKTNV-1">
          <mxGeometry x="980" y="-300" width="80" height="80" as="geometry" />
        </mxCell>
        <mxCell id="b8Esm8HIKwyEbSy9mFFW-31" value="&lt;b&gt;&lt;u&gt;MA&lt;/u&gt;&lt;/b&gt;" style="ellipse;whiteSpace=wrap;html=1;rounded=0;" vertex="1" parent="WIyWlLk6GJQsqaUBKTNV-1">
          <mxGeometry x="900" y="-230" width="80" height="80" as="geometry" />
        </mxCell>
        <mxCell id="b8Esm8HIKwyEbSy9mFFW-33" value="TEN" style="ellipse;whiteSpace=wrap;html=1;rounded=0;" vertex="1" parent="WIyWlLk6GJQsqaUBKTNV-1">
          <mxGeometry x="720" y="-260" width="80" height="80" as="geometry" />
        </mxCell>
        <mxCell id="b8Esm8HIKwyEbSy9mFFW-35" value="CAP_QUAN_LY" style="ellipse;whiteSpace=wrap;html=1;rounded=0;" vertex="1" parent="WIyWlLk6GJQsqaUBKTNV-1">
          <mxGeometry x="820" y="-460" width="80" height="80" as="geometry" />
        </mxCell>
        <mxCell id="b8Esm8HIKwyEbSy9mFFW-37" value="KINH_PHI" style="ellipse;whiteSpace=wrap;html=1;rounded=0;" vertex="1" parent="WIyWlLk6GJQsqaUBKTNV-1">
          <mxGeometry x="1010" y="-390" width="80" height="70" as="geometry" />
        </mxCell>
        <mxCell id="b8Esm8HIKwyEbSy9mFFW-39" value="NGAY_BAT_DAU" style="ellipse;whiteSpace=wrap;html=1;rounded=0;" vertex="1" parent="WIyWlLk6GJQsqaUBKTNV-1">
          <mxGeometry x="700" y="-430" width="80" height="80" as="geometry" />
        </mxCell>
        <mxCell id="b8Esm8HIKwyEbSy9mFFW-41" value="NGAY_KET_THUC" style="ellipse;whiteSpace=wrap;html=1;rounded=0;" vertex="1" parent="WIyWlLk6GJQsqaUBKTNV-1">
          <mxGeometry x="920" y="-460" width="80" height="80" as="geometry" />
        </mxCell>
        <mxCell id="b8Esm8HIKwyEbSy9mFFW-44" value="CHU_DE" style="ellipse;whiteSpace=wrap;html=1;rounded=0;" vertex="1" parent="WIyWlLk6GJQsqaUBKTNV-1">
          <mxGeometry x="620" y="-320" width="80" height="80" as="geometry" />
        </mxCell>
        <mxCell id="b8Esm8HIKwyEbSy9mFFW-48" value="" style="rounded=0;orthogonalLoop=1;jettySize=auto;html=1;" edge="1" parent="WIyWlLk6GJQsqaUBKTNV-1" source="b8Esm8HIKwyEbSy9mFFW-46" target="b8Esm8HIKwyEbSy9mFFW-47">
          <mxGeometry relative="1" as="geometry" />
        </mxCell>
        <mxCell id="b8Esm8HIKwyEbSy9mFFW-50" value="" style="rounded=0;orthogonalLoop=1;jettySize=auto;html=1;" edge="1" parent="WIyWlLk6GJQsqaUBKTNV-1" source="b8Esm8HIKwyEbSy9mFFW-46" target="b8Esm8HIKwyEbSy9mFFW-49">
          <mxGeometry relative="1" as="geometry" />
        </mxCell>
        <mxCell id="b8Esm8HIKwyEbSy9mFFW-52" value="" style="rounded=0;orthogonalLoop=1;jettySize=auto;html=1;" edge="1" parent="WIyWlLk6GJQsqaUBKTNV-1" source="b8Esm8HIKwyEbSy9mFFW-46" target="b8Esm8HIKwyEbSy9mFFW-51">
          <mxGeometry relative="1" as="geometry" />
        </mxCell>
        <mxCell id="b8Esm8HIKwyEbSy9mFFW-54" value="" style="rounded=0;orthogonalLoop=1;jettySize=auto;html=1;" edge="1" parent="WIyWlLk6GJQsqaUBKTNV-1" source="b8Esm8HIKwyEbSy9mFFW-46" target="b8Esm8HIKwyEbSy9mFFW-53">
          <mxGeometry relative="1" as="geometry" />
        </mxCell>
        <mxCell id="b8Esm8HIKwyEbSy9mFFW-56" value="" style="rounded=0;orthogonalLoop=1;jettySize=auto;html=1;" edge="1" parent="WIyWlLk6GJQsqaUBKTNV-1" source="b8Esm8HIKwyEbSy9mFFW-46" target="b8Esm8HIKwyEbSy9mFFW-55">
          <mxGeometry relative="1" as="geometry" />
        </mxCell>
        <mxCell id="b8Esm8HIKwyEbSy9mFFW-58" value="" style="rounded=0;orthogonalLoop=1;jettySize=auto;html=1;" edge="1" parent="WIyWlLk6GJQsqaUBKTNV-1" source="b8Esm8HIKwyEbSy9mFFW-46" target="b8Esm8HIKwyEbSy9mFFW-57">
          <mxGeometry relative="1" as="geometry" />
        </mxCell>
        <mxCell id="b8Esm8HIKwyEbSy9mFFW-60" value="" style="rounded=0;orthogonalLoop=1;jettySize=auto;html=1;" edge="1" parent="WIyWlLk6GJQsqaUBKTNV-1" source="b8Esm8HIKwyEbSy9mFFW-46" target="b8Esm8HIKwyEbSy9mFFW-59">
          <mxGeometry relative="1" as="geometry" />
        </mxCell>
        <mxCell id="b8Esm8HIKwyEbSy9mFFW-46" value="NGUOI_THAN" style="rounded=0;whiteSpace=wrap;html=1;" vertex="1" parent="WIyWlLk6GJQsqaUBKTNV-1">
          <mxGeometry x="-210" y="420" width="120" height="60" as="geometry" />
        </mxCell>
        <mxCell id="b8Esm8HIKwyEbSy9mFFW-47" value="&lt;b&gt;&lt;u&gt;STT&lt;/u&gt;&lt;/b&gt;" style="ellipse;whiteSpace=wrap;html=1;rounded=0;" vertex="1" parent="WIyWlLk6GJQsqaUBKTNV-1">
          <mxGeometry x="-390" y="410" width="80" height="80" as="geometry" />
        </mxCell>
        <mxCell id="b8Esm8HIKwyEbSy9mFFW-49" value="HO" style="ellipse;whiteSpace=wrap;html=1;rounded=0;" vertex="1" parent="WIyWlLk6GJQsqaUBKTNV-1">
          <mxGeometry x="-330" y="320" width="80" height="80" as="geometry" />
        </mxCell>
        <mxCell id="b8Esm8HIKwyEbSy9mFFW-51" value="TENLOT" style="ellipse;whiteSpace=wrap;html=1;rounded=0;" vertex="1" parent="WIyWlLk6GJQsqaUBKTNV-1">
          <mxGeometry x="-240" y="270" width="80" height="80" as="geometry" />
        </mxCell>
        <mxCell id="b8Esm8HIKwyEbSy9mFFW-53" value="TEN" style="ellipse;whiteSpace=wrap;html=1;rounded=0;" vertex="1" parent="WIyWlLk6GJQsqaUBKTNV-1">
          <mxGeometry x="-350" y="520" width="80" height="80" as="geometry" />
        </mxCell>
        <mxCell id="b8Esm8HIKwyEbSy9mFFW-55" value="PHAI" style="ellipse;whiteSpace=wrap;html=1;rounded=0;" vertex="1" parent="WIyWlLk6GJQsqaUBKTNV-1">
          <mxGeometry x="-270" y="585" width="80" height="80" as="geometry" />
        </mxCell>
        <mxCell id="b8Esm8HIKwyEbSy9mFFW-57" value="NGSINH" style="ellipse;whiteSpace=wrap;html=1;rounded=0;" vertex="1" parent="WIyWlLk6GJQsqaUBKTNV-1">
          <mxGeometry x="-170" y="585" width="80" height="80" as="geometry" />
        </mxCell>
        <mxCell id="b8Esm8HIKwyEbSy9mFFW-59" value="MAGV" style="ellipse;whiteSpace=wrap;html=1;rounded=0;" vertex="1" parent="WIyWlLk6GJQsqaUBKTNV-1">
          <mxGeometry x="-150" y="270" width="80" height="80" as="geometry" />
        </mxCell>
        <mxCell id="b8Esm8HIKwyEbSy9mFFW-63" value="" style="rounded=0;orthogonalLoop=1;jettySize=auto;html=1;" edge="1" parent="WIyWlLk6GJQsqaUBKTNV-1" source="b8Esm8HIKwyEbSy9mFFW-61" target="b8Esm8HIKwyEbSy9mFFW-62">
          <mxGeometry relative="1" as="geometry" />
        </mxCell>
        <mxCell id="b8Esm8HIKwyEbSy9mFFW-65" value="" style="rounded=0;orthogonalLoop=1;jettySize=auto;html=1;" edge="1" parent="WIyWlLk6GJQsqaUBKTNV-1" source="b8Esm8HIKwyEbSy9mFFW-61" target="b8Esm8HIKwyEbSy9mFFW-64">
          <mxGeometry relative="1" as="geometry" />
        </mxCell>
        <mxCell id="b8Esm8HIKwyEbSy9mFFW-67" value="" style="rounded=0;orthogonalLoop=1;jettySize=auto;html=1;" edge="1" parent="WIyWlLk6GJQsqaUBKTNV-1" source="b8Esm8HIKwyEbSy9mFFW-61" target="b8Esm8HIKwyEbSy9mFFW-66">
          <mxGeometry relative="1" as="geometry" />
        </mxCell>
        <mxCell id="b8Esm8HIKwyEbSy9mFFW-69" value="" style="rounded=0;orthogonalLoop=1;jettySize=auto;html=1;" edge="1" parent="WIyWlLk6GJQsqaUBKTNV-1" source="b8Esm8HIKwyEbSy9mFFW-61" target="b8Esm8HIKwyEbSy9mFFW-68">
          <mxGeometry relative="1" as="geometry" />
        </mxCell>
        <mxCell id="b8Esm8HIKwyEbSy9mFFW-71" value="" style="rounded=0;orthogonalLoop=1;jettySize=auto;html=1;" edge="1" parent="WIyWlLk6GJQsqaUBKTNV-1" source="b8Esm8HIKwyEbSy9mFFW-61" target="b8Esm8HIKwyEbSy9mFFW-70">
          <mxGeometry relative="1" as="geometry" />
        </mxCell>
        <mxCell id="b8Esm8HIKwyEbSy9mFFW-61" value="CONG_VIEC" style="rounded=0;whiteSpace=wrap;html=1;" vertex="1" parent="WIyWlLk6GJQsqaUBKTNV-1">
          <mxGeometry x="350" y="-390" width="120" height="60" as="geometry" />
        </mxCell>
        <mxCell id="b8Esm8HIKwyEbSy9mFFW-62" value="&lt;b&gt;&lt;u&gt;STT_CONGVIEC&lt;/u&gt;&lt;/b&gt;" style="ellipse;whiteSpace=wrap;html=1;rounded=0;" vertex="1" parent="WIyWlLk6GJQsqaUBKTNV-1">
          <mxGeometry x="314" y="-540" width="80" height="80" as="geometry" />
        </mxCell>
        <mxCell id="b8Esm8HIKwyEbSy9mFFW-64" value="MA" style="ellipse;whiteSpace=wrap;html=1;rounded=0;" vertex="1" parent="WIyWlLk6GJQsqaUBKTNV-1">
          <mxGeometry x="170" y="-400" width="80" height="80" as="geometry" />
        </mxCell>
        <mxCell id="b8Esm8HIKwyEbSy9mFFW-66" value="TEN" style="ellipse;whiteSpace=wrap;html=1;rounded=0;" vertex="1" parent="WIyWlLk6GJQsqaUBKTNV-1">
          <mxGeometry x="234" y="-300" width="80" height="80" as="geometry" />
        </mxCell>
        <mxCell id="b8Esm8HIKwyEbSy9mFFW-68" value="NGAY_BAT_DAU" style="ellipse;whiteSpace=wrap;html=1;rounded=0;" vertex="1" parent="WIyWlLk6GJQsqaUBKTNV-1">
          <mxGeometry x="430" y="-560" width="80" height="80" as="geometry" />
        </mxCell>
        <mxCell id="b8Esm8HIKwyEbSy9mFFW-70" value="NGAY_KET_THUC" style="ellipse;whiteSpace=wrap;html=1;rounded=0;" vertex="1" parent="WIyWlLk6GJQsqaUBKTNV-1">
          <mxGeometry x="370" y="-260" width="80" height="80" as="geometry" />
        </mxCell>
        <mxCell id="b8Esm8HIKwyEbSy9mFFW-74" value="" style="rounded=0;orthogonalLoop=1;jettySize=auto;html=1;" edge="1" parent="WIyWlLk6GJQsqaUBKTNV-1" source="b8Esm8HIKwyEbSy9mFFW-72" target="b8Esm8HIKwyEbSy9mFFW-73">
          <mxGeometry relative="1" as="geometry" />
        </mxCell>
        <mxCell id="b8Esm8HIKwyEbSy9mFFW-76" value="" style="rounded=0;orthogonalLoop=1;jettySize=auto;html=1;" edge="1" parent="WIyWlLk6GJQsqaUBKTNV-1" source="b8Esm8HIKwyEbSy9mFFW-72" target="b8Esm8HIKwyEbSy9mFFW-75">
          <mxGeometry relative="1" as="geometry" />
        </mxCell>
        <mxCell id="b8Esm8HIKwyEbSy9mFFW-78" value="" style="rounded=0;orthogonalLoop=1;jettySize=auto;html=1;" edge="1" parent="WIyWlLk6GJQsqaUBKTNV-1" source="b8Esm8HIKwyEbSy9mFFW-72" target="b8Esm8HIKwyEbSy9mFFW-77">
          <mxGeometry relative="1" as="geometry" />
        </mxCell>
        <mxCell id="b8Esm8HIKwyEbSy9mFFW-80" value="" style="rounded=0;orthogonalLoop=1;jettySize=auto;html=1;" edge="1" parent="WIyWlLk6GJQsqaUBKTNV-1" source="b8Esm8HIKwyEbSy9mFFW-72" target="b8Esm8HIKwyEbSy9mFFW-79">
          <mxGeometry relative="1" as="geometry" />
        </mxCell>
        <mxCell id="b8Esm8HIKwyEbSy9mFFW-82" value="" style="rounded=0;orthogonalLoop=1;jettySize=auto;html=1;" edge="1" parent="WIyWlLk6GJQsqaUBKTNV-1" source="b8Esm8HIKwyEbSy9mFFW-72" target="b8Esm8HIKwyEbSy9mFFW-81">
          <mxGeometry relative="1" as="geometry" />
        </mxCell>
        <mxCell id="b8Esm8HIKwyEbSy9mFFW-72" value="THAMGIADT" style="rounded=0;whiteSpace=wrap;html=1;" vertex="1" parent="WIyWlLk6GJQsqaUBKTNV-1">
          <mxGeometry x="580" y="460" width="120" height="60" as="geometry" />
        </mxCell>
        <mxCell id="b8Esm8HIKwyEbSy9mFFW-73" value="&lt;b&gt;&lt;u&gt;STT&lt;/u&gt;&lt;/b&gt;" style="ellipse;whiteSpace=wrap;html=1;rounded=0;" vertex="1" parent="WIyWlLk6GJQsqaUBKTNV-1">
          <mxGeometry x="520" y="310" width="80" height="80" as="geometry" />
        </mxCell>
        <mxCell id="b8Esm8HIKwyEbSy9mFFW-75" value="MA" style="ellipse;whiteSpace=wrap;html=1;rounded=0;" vertex="1" parent="WIyWlLk6GJQsqaUBKTNV-1">
          <mxGeometry x="480" y="400" width="80" height="80" as="geometry" />
        </mxCell>
        <mxCell id="b8Esm8HIKwyEbSy9mFFW-77" value="MAGV" style="ellipse;whiteSpace=wrap;html=1;rounded=0;" vertex="1" parent="WIyWlLk6GJQsqaUBKTNV-1">
          <mxGeometry x="480" y="540" width="80" height="80" as="geometry" />
        </mxCell>
        <mxCell id="b8Esm8HIKwyEbSy9mFFW-79" value="STT_CONGvIEC" style="ellipse;whiteSpace=wrap;html=1;rounded=0;" vertex="1" parent="WIyWlLk6GJQsqaUBKTNV-1">
          <mxGeometry x="414" y="470" width="80" height="80" as="geometry" />
        </mxCell>
        <mxCell id="b8Esm8HIKwyEbSy9mFFW-81" value="KETQUA" style="ellipse;whiteSpace=wrap;html=1;rounded=0;" vertex="1" parent="WIyWlLk6GJQsqaUBKTNV-1">
          <mxGeometry x="570" y="585" width="80" height="80" as="geometry" />
        </mxCell>
      </root>
    </mxGraphModel>
  </diagram>
</mxfile>
